<?xml version="1.0" encoding="UTF-8" standalone="no"?> <svg width="64" height="64" viewBox="0 0 64 64" fill="none" xmlns="http://www.w3.org/2000/svg">
<path d="M48 6.40004L44.65 18.78C44.5794 19.0263 44.4293 19.2422 44.2231 19.3942C44.0169 19.5461 43.7661 19.6255 43.51 19.62C43.2555 19.6086 43.0123 19.5116 42.8199 19.3446C42.6275 19.1776 42.4971 18.9504 42.45 18.7L41.4 13.07L4.67003 49.8C4.56563 49.9044 4.44169 49.9873 4.30528 50.0438C4.16888 50.1003 4.02268 50.1293 3.87503 50.1293C3.72739 50.1293 3.58119 50.1003 3.44478 50.0438C3.30837 49.9873 3.18443 49.9044 3.08003 49.8C2.97563 49.6956 2.89282 49.5717 2.83631 49.4353C2.77981 49.2989 2.75073 49.1527 2.75073 49.005C2.75073 48.8574 2.77981 48.7112 2.83631 48.5748C2.89282 48.4384 2.97563 48.3144 3.08003 48.21L39.89 11.39L34.05 10.3C33.8005 10.2476 33.5761 10.1124 33.4132 9.91626C33.2503 9.72016 33.1585 9.47474 33.1527 9.21986C33.1469 8.96499 33.2275 8.71565 33.3813 8.51235C33.5351 8.30905 33.7532 8.16374 34 8.10004L46.67 4.70004C46.8424 4.65564 47.0228 4.65257 47.1965 4.69109C47.3702 4.7296 47.5324 4.80861 47.6699 4.92167C47.8073 5.03473 47.9161 5.17866 47.9874 5.34172C48.0586 5.50478 48.0904 5.68238 48.08 5.86004C48.1086 6.04399 48.0807 6.23228 48 6.40004Z" fill="black"/>
<path d="M58.36 12.5101C58.5365 12.3414 58.7582 12.2277 58.9981 12.1827C59.2381 12.1377 59.4859 12.1634 59.7115 12.2566C59.9371 12.3498 60.1308 12.5066 60.269 12.7078C60.4072 12.909 60.484 13.146 60.49 13.3901V58.8601C60.49 59.1916 60.3583 59.5095 60.1239 59.744C59.8895 59.9784 59.5715 60.1101 59.24 60.1101H13.77C13.5279 60.1049 13.2926 60.0295 13.0925 59.893C12.8925 59.7566 12.7364 59.565 12.6432 59.3415C12.55 59.118 12.5237 58.8723 12.5675 58.6342C12.6113 58.396 12.7234 58.1757 12.89 58.0001L58.36 12.5101Z" fill="black"/>
</svg>
