<svg xmlns="http://www.w3.org/2000/svg" viewBox="0 0 64 64"><g id="Layer_14" data-name="Layer 14"><polygon points="42.72 23.4 53.06 13.06 50.94 10.94 40.6 21.28 34.06 14.74 34.06 29.94 49.26 29.94 42.72 23.4"/><polygon points="21.28 40.6 10.94 50.94 13.06 53.06 23.4 42.72 29.94 49.26 29.94 34.06 14.74 34.06 21.28 40.6"/><polygon points="13.06 10.94 10.94 13.06 21.28 23.4 14.74 29.94 29.94 29.94 29.94 14.74 23.4 21.28 13.06 10.94"/><polygon points="49.26 34.06 34.06 34.06 34.06 49.26 40.6 42.72 50.94 53.06 53.06 50.94 42.72 40.6 49.26 34.06"/></g></svg>