<svg xmlns="http://www.w3.org/2000/svg" viewBox="0 0 64 64"><g id="Layer_4" data-name="Layer 4"><polygon points="38.3 10.5 44.84 17.04 34.5 27.38 36.62 29.5 46.96 19.16 53.5 25.7 53.5 10.5 38.3 10.5"/><polygon points="27.38 34.5 17.04 44.84 10.5 38.3 10.5 53.5 25.7 53.5 19.16 46.96 29.5 36.62 27.38 34.5"/><polygon points="25.7 10.5 10.5 10.5 10.5 25.7 17.04 19.16 27.38 29.5 29.5 27.38 19.16 17.04 25.7 10.5"/><polygon points="36.62 34.5 34.5 36.62 44.84 46.96 38.3 53.5 53.5 53.5 53.5 38.3 46.96 44.84 36.62 34.5"/></g></svg>