<svg xmlns="http://www.w3.org/2000/svg" viewBox="0 0 64 64"><g id="Layer_73" data-name="Layer 73"><path d="M26.75,19.17H52a1.5,1.5,0,0,0,0-3H26.75A1.5,1.5,0,0,0,26.75,19.17Z"/><path d="M53.5,32A1.5,1.5,0,0,0,52,30.5H34.74a1.5,1.5,0,0,0,0,3H52A1.5,1.5,0,0,0,53.5,32Z"/><path d="M52,44.83H42.7a1.5,1.5,0,0,0,0,3H52A1.5,1.5,0,0,0,52,44.83Z"/><path d="M31.79,42.23a1.52,1.52,0,0,0-1.39-.93H22.7V12a1.5,1.5,0,0,0-3,0V41.3H12a1.51,1.51,0,0,0-1.06,2.56l9.2,9.2a1.5,1.5,0,0,0,2.12,0l9.2-9.2A1.5,1.5,0,0,0,31.79,42.23Z"/></g></svg>