<svg xmlns="http://www.w3.org/2000/svg" viewBox="0 0 64 64"><g id="Layer_74" data-name="Layer 74"><path d="M52,44.83H26.75a1.5,1.5,0,0,0,0,3H52A1.5,1.5,0,0,0,52,44.83Z"/><path d="M34.74,33.5H52a1.5,1.5,0,0,0,0-3H34.74A1.5,1.5,0,0,0,34.74,33.5Z"/><path d="M42.7,19.17H52a1.5,1.5,0,0,0,0-3H42.7A1.5,1.5,0,0,0,42.7,19.17Z"/><path d="M31,22.59a1.51,1.51,0,0,0,.51-2.45l-9.2-9.2a1.53,1.53,0,0,0-2.12,0l-9.2,9.2a1.52,1.52,0,0,0,.49,2.45,1.56,1.56,0,0,0,.57.11h7.7V52a1.5,1.5,0,0,0,3,0V22.7h7.7A1.42,1.42,0,0,0,31,22.59Z"/></g></svg>