<?xml version="1.0" encoding="UTF-8" standalone="no"?> <svg width="64" height="64" viewBox="0 0 64 64" fill="none" xmlns="http://www.w3.org/2000/svg">
<path d="M12 6.80005H52C52.3315 6.80005 52.6495 6.66835 52.8839 6.43393C53.1183 6.19951 53.25 5.88157 53.25 5.55005C53.25 5.21853 53.1183 4.90059 52.8839 4.66617C52.6495 4.43174 52.3315 4.30005 52 4.30005H12C11.6685 4.30005 11.3505 4.43174 11.1161 4.66617C10.8817 4.90059 10.75 5.21853 10.75 5.55005C10.75 5.88157 10.8817 6.19951 11.1161 6.43393C11.3505 6.66835 11.6685 6.80005 12 6.80005V6.80005Z" fill="black"/>
<path d="M52 57.2H12C11.6685 57.2 11.3505 57.3316 11.1161 57.5661C10.8817 57.8005 10.75 58.1184 10.75 58.45C10.75 58.7815 10.8817 59.0994 11.1161 59.3338C11.3505 59.5683 11.6685 59.7 12 59.7H52C52.3315 59.7 52.6495 59.5683 52.8839 59.3338C53.1183 59.0994 53.25 58.7815 53.25 58.45C53.25 58.1184 53.1183 57.8005 52.8839 57.5661C52.6495 57.3316 52.3315 57.2 52 57.2V57.2Z" fill="black"/>
<path d="M10.09 3.12001C9.97471 3.00391 9.83761 2.91176 9.68658 2.84888C9.53555 2.786 9.37357 2.75363 9.20997 2.75363C9.04637 2.75363 8.88439 2.786 8.73336 2.84888C8.58232 2.91176 8.44523 3.00391 8.32997 3.12001L7.65997 3.78001L6.99997 3.12001C6.88441 3.00314 6.74695 2.91017 6.59546 2.84641C6.44397 2.78265 6.2814 2.74936 6.11704 2.74843C5.7851 2.74656 5.46601 2.87662 5.22997 3.11001C4.99393 3.3434 4.86026 3.661 4.85839 3.99294C4.85651 4.32488 4.98658 4.64397 5.21997 4.88001L5.88997 5.55001L5.21997 6.22001C4.98393 6.45605 4.85132 6.7762 4.85132 7.11001C4.85132 7.44383 4.98393 7.76397 5.21997 8.00001C5.45601 8.23605 5.77615 8.36866 6.10997 8.36866C6.44378 8.36866 6.76393 8.23605 6.99997 8.00001L7.66997 7.33001L8.32997 8.00001C8.44365 8.12645 8.58194 8.22836 8.73637 8.29952C8.8908 8.37068 9.05812 8.40958 9.2281 8.41385C9.39807 8.41812 9.56714 8.38766 9.72494 8.32435C9.88274 8.26103 10.026 8.16619 10.1459 8.04562C10.2658 7.92505 10.3598 7.78128 10.4222 7.62312C10.4846 7.46496 10.5141 7.29573 10.5089 7.12578C10.5037 6.95583 10.4638 6.78873 10.3918 6.63471C10.3197 6.48069 10.217 6.34298 10.09 6.23001L9.42997 5.56001L10.09 4.89001C10.2076 4.77458 10.301 4.63686 10.3648 4.48491C10.4286 4.33295 10.4614 4.16981 10.4614 4.00501C10.4614 3.84022 10.4286 3.67707 10.3648 3.52512C10.301 3.37316 10.2076 3.23544 10.09 3.12001V3.12001Z" fill="black"/>
<path d="M9.99996 56C9.76292 55.7697 9.44545 55.6409 9.11496 55.6409C8.78447 55.6409 8.46699 55.7697 8.22996 56L7.56996 56.67L6.92996 56C6.69292 55.7697 6.37545 55.6409 6.04496 55.6409C5.71447 55.6409 5.39699 55.7697 5.15996 56C5.04355 56.1161 4.95119 56.2541 4.88818 56.4059C4.82516 56.5578 4.79272 56.7206 4.79272 56.885C4.79272 57.0494 4.82516 57.2122 4.88818 57.3641C4.95119 57.5159 5.04355 57.6539 5.15996 57.77L5.82996 58.44L5.15996 59.11C4.94773 59.3487 4.83495 59.6597 4.84478 59.979C4.85461 60.2982 4.9863 60.6016 5.21281 60.8269C5.43933 61.0521 5.74347 61.1821 6.06281 61.1901C6.38214 61.1981 6.69243 61.0836 6.92996 60.87L7.59996 60.21L8.25996 60.87C8.50124 61.0429 8.7962 61.1244 9.09204 61.0997C9.38788 61.075 9.66528 60.9459 9.87459 60.7354C10.0839 60.5249 10.2115 60.2467 10.2344 59.9508C10.2574 59.6548 10.1743 59.3603 9.99996 59.12L9.32996 58.45L9.99996 57.78C10.1179 57.6637 10.2115 57.5251 10.2754 57.3724C10.3393 57.2196 10.3722 57.0556 10.3722 56.89C10.3722 56.7244 10.3393 56.5604 10.2754 56.4076C10.2115 56.2549 10.1179 56.1163 9.99996 56V56Z" fill="black"/>
<path d="M58.86 45C58.6659 44.7947 58.408 44.6612 58.1284 44.6212C57.8487 44.5813 57.5638 44.6373 57.32 44.78L53.2 47.24V16.84L57.2 19.34C57.441 19.4809 57.722 19.5378 57.9988 19.5017C58.2757 19.4656 58.5327 19.3386 58.7295 19.1407C58.9264 18.9427 59.0519 18.6849 59.0863 18.4079C59.1208 18.1308 59.0623 17.8502 58.92 17.61L53.05 8.33C52.9357 8.15491 52.7802 8.0105 52.5971 7.90939C52.4141 7.80828 52.2091 7.75355 52 7.75C52 7.75 52 7.75 51.92 7.75C51.8183 7.76031 51.7178 7.7804 51.62 7.81C51.4426 7.86285 51.2795 7.95504 51.1427 8.0797C51.0059 8.20436 50.899 8.35829 50.83 8.53L44.9 17.43C44.7325 17.6629 44.6509 17.9466 44.6691 18.2329C44.6874 18.5192 44.8043 18.7903 45 19C45.1957 19.2061 45.4553 19.34 45.7367 19.3799C46.0181 19.4199 46.3047 19.3635 46.55 19.22L50.7 16.75V47.19L46.7 44.66C46.4593 44.5279 46.182 44.4781 45.9104 44.518C45.6387 44.558 45.3876 44.6856 45.1951 44.8815C45.0027 45.0773 44.8795 45.3307 44.8442 45.603C44.809 45.8753 44.8637 46.1516 45 46.39L50.86 55.67C50.9741 55.8561 51.1369 56.0075 51.3307 56.1079C51.5246 56.2084 51.7421 56.254 51.96 56.24C52.02 56.24 52.06 56.24 52.12 56.24H52.27C52.4779 56.1959 52.6706 56.0979 52.8286 55.9557C52.9866 55.8135 53.1043 55.6322 53.17 55.43L59 46.56C59.1579 46.3229 59.2301 46.0391 59.2046 45.7554C59.1792 45.4717 59.0576 45.2052 58.86 45V45Z" fill="black"/>
</svg>
